<svg width="80" height="80" viewBox="0 0 80 80" fill="none" xmlns="http://www.w3.org/2000/svg">
<path fill-rule="evenodd" clip-rule="evenodd" d="M40 3.63472C19.8167 3.63472 3.47667 20.5979 3.47667 41.488C3.47667 56.8269 12.2867 70.0267 24.9667 75.964C26.2933 76.5866 27.59 76.3396 28.6033 75.5466C29.1637 75.0912 29.6155 74.5066 29.9231 73.8386C30.2308 73.1706 30.386 72.4373 30.3767 71.6962V69.7136L25.8533 69.0736C25.8198 69.0689 25.7865 69.0631 25.7533 69.0562C23.26 68.5484 21.5767 67.6337 20.3433 66.3154C19.3067 65.2059 18.6733 63.8772 18.1367 62.7503L17.95 62.3572C17.454 61.2777 16.9123 60.2216 16.3267 59.1921C15.8767 58.4477 15.5267 58.0651 15.18 57.8251C14.3 57.2164 13.4533 56.1834 13.4533 54.893C13.4503 54.5216 13.5265 54.1541 13.6764 53.8173C13.8263 53.4804 14.0462 53.1825 14.32 52.9452C14.8369 52.5182 15.481 52.2942 16.14 52.3122C16.88 52.3122 17.5767 52.5487 18.1567 52.82C18.75 53.0983 19.34 53.4669 19.89 53.8495C21.23 54.7817 22.55 55.8843 23.6667 57.2443C24.83 58.6564 25.6533 59.5538 26.8933 59.7381C27.9133 59.8912 28.9533 59.8947 29.7633 59.8564C29.8759 59.1872 30.0616 58.5337 30.3167 57.9086C29.3274 57.6677 28.3515 57.3705 27.3933 57.0182C25.2133 56.2112 22.7833 54.9556 21.15 53.053C19.3567 50.9592 18.2467 49.0914 17.6267 46.907C17.0233 44.7784 16.9233 42.4723 16.9233 39.6341C16.9233 35.2864 18.7267 31.6238 20.08 29.6795C19.56 27.9773 19.1863 26.2301 18.9633 24.4587C18.8156 23.3416 18.8168 22.2086 18.9667 21.0918C19.1333 20.0727 19.55 18.8206 20.6467 18.0658C21.7033 17.3319 22.9433 17.3632 23.91 17.551C24.9133 17.7493 25.9567 18.184 26.9167 18.6814C28.48 19.4884 30.0333 20.5666 31.1967 21.4814C33.2033 20.8657 36.7533 20.0727 39.9633 19.9997H40.0367C43.25 20.0727 46.64 20.8657 48.5967 21.4779C49.7633 20.5666 51.3133 19.4849 52.8733 18.6814C53.8333 18.184 54.8733 17.7493 55.88 17.551C56.8467 17.3632 58.0867 17.3319 59.1467 18.0623C60.24 18.8206 60.66 20.0727 60.8233 21.0918C60.9933 22.1527 60.9533 23.3387 60.8233 24.4587C60.6013 26.23 60.2287 27.9771 59.71 29.6795C61.0633 31.6273 62.8667 35.2899 62.8667 39.6341C62.8667 42.4723 62.7667 44.7784 62.1667 46.9036C61.5433 49.0948 60.4333 50.9592 58.64 53.053C57.0067 54.9556 54.5767 56.2112 52.3967 57.0182C51.2395 57.4426 50.057 57.7877 48.8567 58.0512C49.2667 59.3451 49.4133 60.392 49.4133 60.9938V71.7414C49.4133 73.3762 50.1433 74.7709 51.18 75.5848C52.1867 76.3813 53.48 76.6283 54.8067 76.0231C67.6067 70.138 76.52 56.9034 76.52 41.4845C76.52 20.5979 60.1867 3.63472 40 3.63472ZM31.5867 63.3381H31.5733L31.5467 63.345L31.45 63.3589C30.9549 63.4197 30.4579 63.4626 29.96 63.4876C28.7737 63.5522 27.5842 63.5021 26.4067 63.3381C23.77 62.9485 22.1667 61.0007 21.13 59.7347L21.03 59.6164C20.6911 59.2061 20.327 58.8192 19.94 58.4582C20.2833 59.119 20.64 59.8564 21.0233 60.6494L21.0567 60.719L21.2267 61.0807C21.81 62.2911 22.1933 63.0981 22.83 63.7729C23.45 64.4337 24.4167 65.0737 26.37 65.4772L32.35 66.3224C32.7677 66.3814 33.1506 66.5965 33.4277 66.9279C33.7048 67.2593 33.8572 67.6843 33.8567 68.1241V71.6962C33.8567 74.4788 32.6067 76.9587 30.69 78.4613C29.6837 79.2636 28.4866 79.7641 27.2278 79.9088C25.969 80.0534 24.6962 79.8368 23.5467 79.2822C9.67333 72.7884 0 58.3295 0 41.488C0 18.5597 17.9233 0 40 0C62.0767 0 80 18.5597 80 41.488C80 58.4164 70.2033 72.9136 56.21 79.3517C55.0596 79.8958 53.789 80.1033 52.5343 79.9519C51.2795 79.8006 50.0878 79.2962 49.0867 78.4926C48.0967 77.6974 47.2969 76.6737 46.7497 75.5017C46.2026 74.3298 45.9232 73.0415 45.9333 71.7379V60.9903C45.9333 60.7468 45.77 59.3416 44.86 57.453C44.7344 57.1911 44.6711 56.9015 44.6755 56.6086C44.6799 56.3158 44.7519 56.0284 44.8853 55.7708C45.0188 55.5131 45.2097 55.2928 45.442 55.1285C45.6744 54.9642 45.9412 54.8608 46.22 54.8269C47.9289 54.6034 49.6097 54.1883 51.2333 53.5887C53.2133 52.8583 54.99 51.8565 56.0467 50.6253C57.6167 48.7957 58.4 47.3905 58.83 45.8705C59.2767 44.2949 59.39 42.4619 59.39 39.6341C59.39 35.6655 57.39 32.3299 56.47 31.2551C56.2612 31.0122 56.1188 30.7152 56.0578 30.3951C55.9968 30.0751 56.0194 29.7438 56.1233 29.436C56.7159 27.6836 57.1347 25.8724 57.3733 24.0309C57.48 23.0744 57.4867 22.2744 57.3933 21.697C57.3724 21.4859 57.3112 21.2813 57.2133 21.0953C56.9838 21.0539 56.7485 21.0645 56.5233 21.1266C55.9567 21.2379 55.2333 21.5162 54.4133 21.9405C52.78 22.7822 51.08 24.0274 50.0267 24.9178C49.7944 25.1145 49.5173 25.2451 49.2223 25.2969C48.9273 25.3487 48.6245 25.32 48.3433 25.2135C45.6444 24.2923 42.8371 23.7621 40 23.6379C36.6433 23.7213 32.77 24.7161 31.4467 25.2135C31.1655 25.32 30.8627 25.3487 30.5677 25.2969C30.2727 25.2451 29.9956 25.1145 29.7633 24.9178C28.4011 23.7735 26.9314 22.776 25.3767 21.9405C24.709 21.5747 23.9986 21.3011 23.2633 21.1266C23.0392 21.065 22.8051 21.0544 22.5767 21.0953C22.4787 21.2813 22.4175 21.4859 22.3967 21.697C22.3033 22.2744 22.31 23.0744 22.4167 24.0309C22.6569 25.8721 23.0757 27.6831 23.6667 29.436C23.8767 30.0621 23.7467 30.7578 23.32 31.2551C22.4 32.3299 20.4 35.6655 20.4 39.6341C20.4 42.4584 20.5133 44.2949 20.96 45.8705C21.3933 47.3905 22.1733 48.7922 23.74 50.6253C24.8 51.8565 26.5733 52.8583 28.5567 53.5887C30.1792 54.1878 31.8589 54.603 33.5667 54.8269C33.918 54.8663 34.2496 55.0163 34.5172 55.2571C34.7848 55.4979 34.9759 55.8179 35.0649 56.1748C35.1539 56.5316 35.1367 56.9083 35.0155 57.2546C34.8944 57.601 34.675 57.9007 34.3867 58.1138C33.8367 58.5242 33.4733 59.2616 33.27 60.1138C33.165 60.5525 33.1025 61.0011 33.0833 61.4529V61.519C33.0876 61.96 32.9381 62.3876 32.6628 62.7222C32.3875 63.0568 32.0051 63.2757 31.5867 63.3381Z" fill="white"/>
</svg>
