<svg width="80" height="80" viewBox="0 0 80 80" fill="none" xmlns="http://www.w3.org/2000/svg">
<path d="M40 22.963C36.6304 22.963 33.3365 23.9622 30.5347 25.8342C27.733 27.7063 25.5493 30.3671 24.2598 33.4802C22.9703 36.5933 22.6329 40.0189 23.2903 43.3238C23.9477 46.6286 25.5703 49.6643 27.953 52.047C30.3357 54.4297 33.3714 56.0523 36.6762 56.7097C39.9811 57.3671 43.4067 57.0297 46.5198 55.7402C49.6329 54.4507 52.2937 52.267 54.1658 49.4653C56.0378 46.6635 57.037 43.3696 57.037 40C57.037 35.4815 55.2421 31.1481 52.047 27.953C48.8519 24.7579 44.5185 22.963 40 22.963ZM40 48.1481C38.3884 48.1481 36.8131 47.6703 35.4731 46.7749C34.1332 45.8796 33.0888 44.607 32.4721 43.1182C31.8554 41.6293 31.694 39.991 32.0084 38.4104C32.3228 36.8298 33.0989 35.3779 34.2384 34.2384C35.3779 33.0989 36.8298 32.3228 38.4104 32.0084C39.991 31.694 41.6293 31.8554 43.1182 32.4721C44.607 33.0888 45.8796 34.1332 46.7749 35.4731C47.6703 36.8131 48.1481 38.3884 48.1481 40C48.1384 42.158 47.2768 44.2249 45.7508 45.7508C44.2249 47.2768 42.158 48.1384 40 48.1481ZM57.7778 0H22.2222C16.3285 0 10.6762 2.34126 6.50874 6.50874C2.34126 10.6762 0 16.3285 0 22.2222V57.7778C0 63.6715 2.34126 69.3238 6.50874 73.4913C10.6762 77.6587 16.3285 80 22.2222 80H57.7778C63.6715 80 69.3238 77.6587 73.4913 73.4913C77.6587 69.3238 80 63.6715 80 57.7778V22.2222C80 16.3285 77.6587 10.6762 73.4913 6.50874C69.3238 2.34126 63.6715 0 57.7778 0ZM71.1111 57.7778C71.1111 61.314 69.7064 64.7054 67.2059 67.2059C64.7054 69.7064 61.314 71.1111 57.7778 71.1111H22.2222C18.686 71.1111 15.2946 69.7064 12.7941 67.2059C10.2936 64.7054 8.88889 61.314 8.88889 57.7778V22.2222C8.88889 18.686 10.2936 15.2946 12.7941 12.7941C15.2946 10.2936 18.686 8.88889 22.2222 8.88889H57.7778C61.314 8.88889 64.7054 10.2936 67.2059 12.7941C69.7064 15.2946 71.1111 18.686 71.1111 22.2222V57.7778ZM65.1852 20.7407C65.1852 21.9128 64.8376 23.0585 64.1865 24.033C63.5353 25.0075 62.6098 25.7671 61.527 26.2156C60.4442 26.6641 59.2527 26.7815 58.1032 26.5528C56.9537 26.3241 55.8978 25.7598 55.069 24.931C54.2402 24.1022 53.6758 23.0463 53.4472 21.8968C53.2185 20.7473 53.3359 19.5558 53.7844 18.473C54.2329 17.3902 54.9925 16.4647 55.967 15.8135C56.9415 15.1624 58.0872 14.8148 59.2593 14.8148C60.8309 14.8148 62.3382 15.4392 63.4495 16.5505C64.5608 17.6618 65.1852 19.1691 65.1852 20.7407Z" fill="white"/>
</svg>
