<svg width="80" height="80" viewBox="0 0 80 80" fill="none" xmlns="http://www.w3.org/2000/svg">
<path d="M19.2487 28.0164H3.57098C3.05123 28.0164 2.55277 28.2271 2.18525 28.602C1.81773 28.977 1.61126 29.4855 1.61126 30.0158V78.0006C1.61126 78.5309 1.81773 79.0395 2.18525 79.4144C2.55277 79.7894 3.05123 80 3.57098 80H19.2487C19.7685 80 20.2669 79.7894 20.6345 79.4144C21.002 79.0395 21.2084 78.5309 21.2084 78.0006V30.0158C21.2084 29.4855 21.002 28.977 20.6345 28.602C20.2669 28.2271 19.7685 28.0164 19.2487 28.0164ZM17.289 76.0013H5.5307V32.0152H17.289V76.0013ZM60.4028 28.0164C56.1502 28.0164 52.0152 29.448 48.6445 32.0911V30.0158C48.6445 29.4855 48.438 28.977 48.0705 28.602C47.703 28.2271 47.2045 28.0164 46.6848 28.0164H31.007C30.4873 28.0164 29.9888 28.2271 29.6213 28.602C29.2538 28.977 29.0473 29.4855 29.0473 30.0158V78.0006C29.0473 78.5309 29.2538 79.0395 29.6213 79.4144C29.9888 79.7894 30.4873 80 31.007 80H46.6848C47.2045 80 47.703 79.7894 48.0705 79.4144C48.438 79.0395 48.6445 78.5309 48.6445 78.0006V56.0076C48.6445 54.4168 49.2639 52.8912 50.3665 51.7663C51.469 50.6414 52.9644 50.0095 54.5237 50.0095C56.0829 50.0095 57.5783 50.6414 58.6808 51.7663C59.7834 52.8912 60.4028 54.4168 60.4028 56.0076V78.0006C60.4028 78.5309 60.6093 79.0395 60.9768 79.4144C61.3443 79.7894 61.8428 80 62.3625 80H78.0403C78.56 80 79.0585 79.7894 79.426 79.4144C79.7935 79.0395 80 78.5309 80 78.0006V48.0101C79.9938 42.7094 77.9271 37.6276 74.2532 33.8795C70.5794 30.1313 65.5984 28.0228 60.4028 28.0164ZM76.0806 76.0013H64.3223V56.0076C64.3223 53.3563 63.2899 50.8135 61.4523 48.9388C59.6147 47.064 57.1224 46.0107 54.5237 46.0107C51.9249 46.0107 49.4326 47.064 47.595 48.9388C45.7574 50.8135 44.7251 53.3563 44.7251 56.0076V76.0013H32.9668V32.0152H44.7251V36.8256C44.725 37.2397 44.8509 37.6437 45.0855 37.9816C45.3201 38.3195 45.6517 38.5748 46.0346 38.7122C46.4175 38.8496 46.8328 38.8623 47.2231 38.7486C47.6133 38.6348 47.9594 38.4002 48.2134 38.0773C50.2261 35.4744 52.9848 33.5772 56.1048 32.6502C59.2249 31.7233 62.5506 31.8128 65.6184 32.9062C68.6862 33.9997 71.3431 36.0426 73.2185 38.7501C75.0939 41.4577 76.0945 44.6948 76.0806 48.0101V76.0013ZM12.8522 0.0332735C12.3917 0.000158227 11.9295 -0.00251356 11.4686 0.0252757C10.0019 -0.0765455 8.53022 0.129974 7.14485 0.632041C5.75949 1.13411 4.48993 1.92103 3.4148 2.94406C2.33967 3.9671 1.48187 5.20445 0.894549 6.57947C0.307226 7.9545 0.00288253 9.43791 0.000371817 10.9378C-0.0118007 12.4221 0.275023 13.893 0.843058 15.2595C1.41109 16.626 2.24823 17.8589 3.30255 18.8817C4.35687 19.9044 5.6059 20.6954 6.97219 21.2053C8.33847 21.7153 9.79289 21.9335 11.2452 21.8464H11.355C12.7588 21.9467 14.1683 21.7639 15.503 21.3084C16.8376 20.853 18.0712 20.1338 19.1334 19.192C20.1956 18.2501 21.0656 17.1041 21.6936 15.8192C22.3217 14.5343 22.6955 13.1359 22.7939 11.7036C22.8922 10.2713 22.713 8.83332 22.2666 7.47169C21.8202 6.11006 21.1153 4.85148 20.1921 3.76779C19.2689 2.6841 18.1456 1.79653 16.8862 1.15576C15.6268 0.514994 14.2561 0.133572 12.8522 0.0332735ZM12.715 17.8596C12.2624 17.9016 11.8068 17.8976 11.355 17.8476H11.2452C10.3019 17.92 9.35422 17.7909 8.46259 17.4685C7.57095 17.1462 6.755 16.6377 6.06681 15.9755C5.37863 15.3134 4.83333 14.5121 4.46575 13.6228C4.09817 12.7336 3.91637 11.7759 3.93197 10.8109C3.94756 9.84596 4.16021 8.89491 4.55633 8.01851C4.95244 7.1421 5.52333 6.35959 6.23254 5.72093C6.94175 5.08228 7.77369 4.60151 8.67526 4.30933C9.57682 4.01715 10.5282 3.91998 11.4686 4.02401C13.267 3.85539 15.0573 4.42251 16.4458 5.60061C17.8343 6.77872 18.7072 8.47131 18.8725 10.306C19.0377 12.1407 18.4819 13.9673 17.3271 15.3839C16.1724 16.8005 14.5134 17.691 12.715 17.8596Z" fill="white"/>
</svg>
