<svg width="80" height="80" viewBox="0 0 80 80" fill="none" xmlns="http://www.w3.org/2000/svg">
<path d="M40 0C17.9457 0 0 17.9419 0 40C0 62.0581 17.9457 80 40 80C62.0543 80 80 62.0581 80 40C80 17.9419 62.0543 0 40 0ZM40 77.3357C19.415 77.3357 2.66916 60.5863 2.66916 40C2.66916 19.4137 19.415 2.66434 40 2.66434C60.585 2.66434 77.3308 19.4137 77.3308 40C77.3308 60.5863 60.585 77.3357 40 77.3357Z" fill="#FBF0F0"/>
<path d="M61.937 27.6413C62.2137 27.129 62.4417 26.592 62.618 26.0372C62.6996 25.7798 62.7013 25.5037 62.6227 25.2454C62.5442 24.9871 62.3892 24.7587 62.1781 24.5903C61.9671 24.422 61.7099 24.3216 61.4406 24.3024C61.1713 24.2832 60.9026 24.3462 60.6698 24.483C59.3916 25.2424 58.0079 25.8082 56.5638 26.1619C54.8108 24.5797 52.5341 23.7026 50.1728 23.6996C48.8899 23.7006 47.6204 23.9607 46.4404 24.4642C45.2604 24.9677 44.1942 25.7043 43.3058 26.6298C42.4174 27.5553 41.7249 28.6508 41.2701 29.8504C40.8152 31.05 40.6072 32.3291 40.6586 33.6111C35.0484 32.9048 29.9254 30.0657 26.3524 25.6829C26.2155 25.5169 26.0405 25.3863 25.8424 25.3024C25.6442 25.2184 25.4288 25.1835 25.2142 25.2007C24.9997 25.2178 24.7925 25.2865 24.6102 25.4008C24.4279 25.5152 24.2759 25.6719 24.1671 25.8576C23.349 27.2619 22.9043 28.8524 22.8755 30.4775C22.8467 32.1025 23.2347 33.7079 24.0025 35.1403C23.8142 35.1721 23.6333 35.2381 23.4687 35.3349C23.267 35.4635 23.1009 35.6409 22.9858 35.8506C22.8707 36.0603 22.8103 36.2956 22.8101 36.5349C22.8101 39.3663 24.0699 41.9658 26.1004 43.7321L26.0131 43.8194C25.8598 43.9928 25.7543 44.2032 25.7071 44.4298C25.6599 44.6564 25.6725 44.8914 25.7437 45.1116C26.1671 46.4326 26.8741 47.6451 27.8152 48.6643C28.7563 49.6834 29.9087 50.4845 31.1918 51.0116C28.5565 52.2972 25.6074 52.7986 22.6954 52.456C22.396 52.4255 22.095 52.4952 21.8395 52.6541C21.584 52.813 21.3885 53.0522 21.2835 53.3342C21.1826 53.6182 21.1807 53.9281 21.2781 54.2134C21.3754 54.4986 21.5663 54.7427 21.8198 54.9058C25.7786 57.4468 30.3842 58.7968 35.0883 58.7951C50.5045 58.7951 59.7194 46.2717 59.7194 34.1649L59.7169 33.7558C61.2109 32.5893 62.5087 31.1912 63.561 29.6146C63.7203 29.3762 63.7987 29.0929 63.7844 28.8065C63.7702 28.5202 63.6642 28.246 63.482 28.0246C63.2998 27.8032 63.0512 27.6464 62.7729 27.5774C62.4946 27.5083 62.2016 27.5307 61.937 27.6413ZM57.584 32.0195C57.403 32.1496 57.2575 32.3231 57.1608 32.524C57.064 32.7249 57.0191 32.9468 57.0303 33.1695C57.0452 33.4988 57.0527 33.8331 57.0527 34.1624C57.0527 44.9595 48.8382 56.1282 35.0907 56.1282C32.6389 56.1293 30.2043 55.7178 27.889 54.9108C30.6619 54.3794 33.2668 53.1902 35.4849 51.4432C35.7008 51.2729 35.8589 51.0401 35.9375 50.7766C36.0161 50.5131 36.0114 50.2318 35.924 49.9711C35.8366 49.7103 35.6709 49.483 35.4494 49.32C35.2279 49.1571 34.9615 49.0665 34.6866 49.0607C33.611 49.0402 32.5553 48.7672 31.6047 48.2636C30.654 47.7601 29.835 47.0402 29.2136 46.1619C29.8447 46.1195 30.4634 46.0147 31.0646 45.8526C31.3555 45.7747 31.6115 45.6005 31.7907 45.3584C31.97 45.1163 32.0619 44.8206 32.0514 44.5196C32.041 44.2186 31.9289 43.9299 31.7334 43.7008C31.5378 43.4717 31.2704 43.3156 30.9748 43.2581C29.76 43.011 28.6352 42.4382 27.7208 41.6011C26.8064 40.764 26.1368 39.694 25.7836 38.5057C26.4472 38.6728 27.1282 38.7701 27.8092 38.7926C28.3954 38.7901 28.9392 38.4308 29.1213 37.867C29.3034 37.3032 29.0889 36.6821 28.5925 36.3528C27.4187 35.5707 26.515 34.4453 26.0047 33.1304C25.4943 31.8155 25.4023 30.375 25.7412 29.0059C30.0743 33.4522 35.9253 36.0999 42.1254 36.4201C42.5644 36.4226 42.9486 36.2654 43.2155 35.9436C43.4824 35.6218 43.5847 35.1952 43.4899 34.7861C43.1487 33.3167 43.3013 31.7758 43.9241 30.4019C44.5468 29.028 45.605 27.8977 46.9349 27.1858C48.2647 26.474 49.7921 26.2203 51.2807 26.4641C52.7692 26.7079 54.136 27.4355 55.1693 28.5344C55.3242 28.6996 55.5186 28.8227 55.7342 28.8921C55.9497 28.9615 56.1794 28.9749 56.4016 28.931C56.8132 28.8487 57.2198 28.7539 57.6215 28.6441C57.4404 28.7797 57.2522 28.9054 57.0577 29.0208C56.799 29.1793 56.602 29.4212 56.4992 29.7066C56.3964 29.992 56.3939 30.3039 56.4921 30.591C56.5903 30.878 56.7833 31.123 57.0394 31.2856C57.2955 31.4483 57.5993 31.5188 57.9008 31.4856L58.3549 31.4282C58.1048 31.6342 57.8477 31.8314 57.584 32.0195Z" fill="#FBF0F0"/>
</svg>
